HIERARCHY
ROOT Hips
{
    OFFSET 0.000000 0.000000 0.000000
    CHANNELS 6 Xposition Yposition Zposition Zrotation Xrotation Yrotation
    JOINT Spine
    {
        OFFSET -0.000000 14.517291 0.000000
        CHANNELS 3 Zrotation Xrotation Yrotation
        JOINT Spine1
        {
            OFFSET -0.000000 37.558300 0.000000
            CHANNELS 3 Zrotation Xrotation Yrotation
            JOINT Neck
            {
                OFFSET -0.000000 37.404057 3.400369
                CHANNELS 3 Zrotation Xrotation Yrotation
                JOINT Head
                {
                    OFFSET -0.000000 24.785618 -3.540803
                    CHANNELS 3 Zrotation Xrotation Yrotation
                    End Site
                    {
                        OFFSET -0.000000 35.408028 0.000000
                    }
                }
            }
            JOINT LeftShoulder
            {
                OFFSET 6.992933 33.973492 -0.192664
                CHANNELS 3 Zrotation Xrotation Yrotation
                JOINT LeftArm
                {
                    OFFSET 21.527611 0.000000 0.000000
                    CHANNELS 3 Zrotation Xrotation Yrotation
                    JOINT LeftForeArm
                    {
                        OFFSET 56.353916 0.000000 0.000000
                        CHANNELS 3 Zrotation Xrotation Yrotation
                        JOINT LeftHand
                        {
                            OFFSET 47.774071 0.000000 0.000000
                            CHANNELS 3 Zrotation Xrotation Yrotation
                            End Site
                            {
                                OFFSET 26.556021 0.000000 0.000000
                            }
                        }
                    }
                }
            }
            JOINT RightShoulder
            {
                OFFSET -7.065357 33.973492 -0.192664
                CHANNELS 3 Zrotation Xrotation Yrotation
                JOINT RightArm
                {
                    OFFSET -21.527611 0.000000 0.000000
                    CHANNELS 3 Zrotation Xrotation Yrotation
                    JOINT RightForeArm
                    {
                        OFFSET -56.353916 0.000000 0.000000
                        CHANNELS 3 Zrotation Xrotation Yrotation
                        JOINT RightHand
                        {
                            OFFSET -47.774071 0.000000 0.000000
                            CHANNELS 3 Zrotation Xrotation Yrotation
                            End Site
                            {
                                OFFSET -26.556021 0.000000 0.000000
                            }
                        }
                    }
                }
            }
        }
    }
    JOINT LeftUpLeg
    {
        OFFSET 17.704014 0.000000 0.000000
        CHANNELS 3 Zrotation Xrotation Yrotation
        JOINT LeftLeg
        {
            OFFSET -0.000000 -81.181816 0.000000
            CHANNELS 3 Zrotation Xrotation Yrotation
            JOINT LeftFoot
            {
                OFFSET -0.000000 -62.821102 0.000000
                CHANNELS 3 Zrotation Xrotation Yrotation
                JOINT LeftToeBase
                {
                    OFFSET -0.000000 -11.507608 26.556021
                    CHANNELS 3 Zrotation Xrotation Yrotation
                    End Site
                    {
                        OFFSET -0.000000 0.000000 7.081605
                    }
                }
            }
        }
    }
    JOINT RightUpLeg
    {
        OFFSET -17.704014 0.000000 0.000000
        CHANNELS 3 Zrotation Xrotation Yrotation
        JOINT RightLeg
        {
            OFFSET -0.000000 -81.181816 0.000000
            CHANNELS 3 Zrotation Xrotation Yrotation
            JOINT RightFoot
            {
                OFFSET -0.000000 -62.821102 0.000000
                CHANNELS 3 Zrotation Xrotation Yrotation
                JOINT RightToeBase
                {
                    OFFSET -0.000000 -11.507608 26.556021
                    CHANNELS 3 Zrotation Xrotation Yrotation
                    End Site
                    {
                        OFFSET -0.000000 0.000000 7.081605
                    }
                }
            }
        }
    }
}
MOTION
Frames:    4
Frame Time:    0.008333
24.389927    147.221695    47.416401    3.449962    2.895659    -57.200901    -0.226000    -1.170251    0.863103    3.677725    -1.625013    0.338880    19.519012    3.821622    18.762094    -15.407282    6.437858    16.010546    12.045179    0.702043    -14.952168    -3.974463    -6.687561    -19.467211    -4.612240    -1.202804    -86.586678    -3.511957    -4.716126    -26.551229    -5.340370    -0.255957    -5.168235    30.398169    -14.952587    50.272079    -3.083344    -59.133400    38.448421    34.620350    -49.675117    46.043503    35.555443    -23.873917    27.053028    -27.879566    39.942444    3.328268    -1.006750    -11.533740    43.662540    0.000000    0.000000    0.000000    -28.649029    -8.503986    -18.798014    3.584143    30.556826    -6.985748    19.456795    -11.170891    5.878220    0.000000    0.000000    0.000000    
24.374659    147.220490    47.418915    3.463985    2.891003    -57.202564    -0.217190    -1.179927    0.854013    3.675924    -1.622645    0.335671    19.502583    3.811767    18.753994    -15.358028    6.441284    16.006748    12.042656    0.700894    -14.945040    -3.973273    -6.685069    -19.475075    -4.604773    -1.211261    -86.590202    -3.488899    -4.722938    -26.559496    -5.354148    -0.271037    -5.161675    30.623030    -15.324409    50.432076    -2.090802    -58.703438    40.419346    34.628723    -49.337769    46.013184    35.546181    -23.872143    27.056156    -27.819725    39.866623    3.274698    -1.075135    -11.458712    43.673157    0.000000    0.000000    0.000000    -28.658953    -8.509434    -18.791954    3.587539    30.563114    -6.992915    19.465126    -11.186283    5.880992    0.000000    0.000000    0.000000    
24.359146    147.218964    47.421371    3.476080    2.886954    -57.194485    -0.210460    -1.192861    0.843201    3.676704    -1.617148    0.332000    19.486626    3.791345    18.739857    -15.301618    6.460731    15.997416    12.045539    0.693665    -14.952241    -3.978187    -6.680427    -19.474930    -4.594417    -1.214898    -86.593491    -3.470036    -4.721969    -26.544514    -5.367412    -0.279153    -5.163561    30.818947    -15.651399    50.594486    -1.136036    -58.291080    42.386047    34.622253    -49.040985    46.005562    35.536068    -23.876507    27.061230    -27.869772    39.934868    3.315556    -1.031453    -11.548302    43.657394    0.000000    0.000000    0.000000    -28.671009    -8.510778    -18.821835    3.574632    30.575396    -6.982789    19.489496    -11.187364    5.891262    0.000000    0.000000    0.000000    
24.344326    147.220657    47.418850    3.486871    2.891298    -57.194309    -0.192418    -1.195853    0.839139    3.666374    -1.627364    0.330680    19.481733    3.779757    18.730038    -15.252279    6.467086    15.990538    12.047145    0.695308    -14.943687    -3.975928    -6.710408    -19.502842    -4.638374    -1.181068    -86.590721    -3.410808    -4.743660    -26.533512    -5.381663    -0.290720    -5.168805    30.977562    -15.920094    50.727901    -0.212040    -57.892399    44.354553    34.563190    -48.802929    45.978996    35.536320    -23.879318    27.069899    -27.865681    39.930138    3.317006    -1.022162    -11.541883    43.649635    0.000000    0.000000    0.000000    -28.670944    -8.520123    -18.819944    3.573769    30.584097    -6.964576    19.502514    -11.198489    5.867922    0.000000    0.000000    0.000000    
